<svg xmlns="http://www.w3.org/2000/svg" id="Layer_1" x="0" y="0" viewBox="0 0 1700 700" xml:space="preserve">  <style>    .st0{fill:#fff}  </style>  <path class="st0" d="m317.93 700.33-.74-.67c.32-.36 1.3-2.26 2.66-4.88 57.99-112.24 164.59-208.91 300.17-272.21 65.15-30.42 128.91-46.32 189.49-47.24 50.7-.79 98 9.28 137.17 29.11 7.59-6.78 16.26-12.84 25.98-18.15 26.86-14.68 61.74-23.57 103.68-26.41 46.22-3.13 95.24 6.57 145.72 28.85 45.36 20.02 90.65 50 130.98 86.69 37.65 34.26 69.69 73.09 92.64 112.3 23.5 40.15 36.4 78.97 37.28 112.26l-1 .03c-.88-33.12-13.73-71.78-37.15-111.79-22.9-39.12-54.87-77.88-92.45-112.07-40.25-36.62-85.45-66.54-130.71-86.51-50.33-22.21-99.19-31.89-145.24-28.77-41.79 2.83-76.54 11.68-103.27 26.29-9.53 5.21-18.04 11.14-25.5 17.76 1.13.58 2.25 1.17 3.37 1.76 24.47 13.05 44.62 29.35 59.9 48.45 14.74 18.43 24.21 38.99 27.39 59.47 3.34 21.5 1.99 39.32-4.02 52.97-5.25 11.93-14.16 20.48-25.75 24.73-5.71 2.09-11.87 3.08-18.19 3.08-24.08 0-50.61-14.33-64.27-36.74-17.66-28.96-26.67-79.42-4.75-121.75 6.13-11.84 14.35-22.45 24.57-31.73-38.95-19.64-85.97-29.59-136.35-28.83-60.44.92-124.06 16.79-189.08 47.15-135.38 63.21-241.81 159.73-299.7 271.77-1.73 3.29-2.44 4.65-2.83 5.08zm628.9-294.69c-10.26 9.26-18.5 19.86-24.63 31.71-21.75 41.99-12.8 92.04 4.71 120.77 17.02 27.91 54.23 43.13 81.26 33.24 14.5-5.31 37.57-22.32 29.12-76.6-3.16-20.3-12.56-40.7-27.19-59-14.97-18.73-35.58-35.39-59.59-48.19-1.21-.65-2.44-1.29-3.68-1.93z" id="Background_lines"></path>  <path class="st0" d="M1700 91.96c-17.09-6.85-32.52-12.31-45.52-16.13-42.02-12.34-73.67-9.34-94.08 8.92-3.26 2.92-6.2 6.2-8.81 9.82-6.69-4.77-14.11-9.33-22.23-13.67-96.38-51.39-281.16-62.69-447.84 15.14-74.91 34.98-86.07 71.21-82.24 95.44 3.35 21.23 19.77 42.46 46.22 59.78 24.36 15.96 55.02 27.18 84.13 30.78 44.04 5.46 75.88-6.85 87.37-33.77l-.92-.39c-11.3 26.48-42.77 38.56-86.33 33.17-28.96-3.59-59.47-14.75-83.71-30.63-26.21-17.17-42.47-38.16-45.78-59.1-3.78-23.9 7.33-59.67 81.67-94.38 166.38-77.69 350.79-66.44 446.95-15.16 8.09 4.31 15.47 8.86 22.13 13.6-5.78 8.29-9.87 18.34-12.22 30.03-2.64 13.14-2.84 28.15-.53 41.19 3.71 21.04 26.11 48.82 42.69 48.82.77 0 1.53-.06 2.27-.18 17.72-2.94 14.84-38.93 11.54-60.12-3.4-21.88-17.9-42.3-42.33-59.95 2.48-3.47 5.35-6.73 8.64-9.67 20.13-18.01 51.47-20.94 93.13-8.7 13.07 3.84 28.59 9.34 45.8 16.24v-1.08zm-106.24 63.31c7.54 48.52-3.48 57.78-10.72 58.98-15.08 2.49-39.66-24.31-43.81-47.82-2.98-16.85-2.9-48 12.61-70.44 24.21 17.47 38.56 37.67 41.92 59.28z"></path></svg>